HIERARCHY
ROOT Hips
{
	OFFSET -3.958830 18.904000 13.208200
	CHANNELS 6 Xposition Yposition Zposition Zrotation Yrotation Xrotation 
	JOINT LHipJoint
	{
		OFFSET 0.000000 0.000000 0.000000
		CHANNELS 3 Zrotation Yrotation Xrotation
		JOINT LeftUpLeg
		{
			OFFSET 1.800000 -1.400000 0.085000
			CHANNELS 3 Zrotation Yrotation Xrotation
			JOINT LeftLeg
			{
				OFFSET 2.215000 -6.000000 0.000000
				CHANNELS 3 Zrotation Yrotation Xrotation
				JOINT LeftFoot
				{
					OFFSET 2.500000 -6.900000 0.000000
					CHANNELS 3 Zrotation Yrotation Xrotation
					JOINT LeftToeBase
					{
						OFFSET 0.200000 -0.500000 1.950000
						CHANNELS 3 Zrotation Yrotation Xrotation
						End Site
						{
							OFFSET 0.000000 0.000000 0.000000
						}
					}
				}
			}
		}
	}
	JOINT RHipJoint
	{
		OFFSET 0.000000 0.000000 0.000000
		CHANNELS 3 Zrotation Yrotation Xrotation
		JOINT RightUpLeg
		{
			OFFSET -1.800000 -1.400000 0.085000
			CHANNELS 3 Zrotation Yrotation Xrotation
			JOINT RightLeg
			{
				OFFSET -2.215000 -6.000000 0.000000
				CHANNELS 3 Zrotation Yrotation Xrotation
				JOINT RightFoot
				{
					OFFSET -2.500000 -6.900000 0.000000
					CHANNELS 3 Zrotation Yrotation Xrotation
					JOINT RightToeBase
					{
						OFFSET -0.200000 -0.500000 1.950000
						CHANNELS 3 Zrotation Yrotation Xrotation
						End Site
						{
							OFFSET 0.000000 0.000000 0.000000
						}
					}
				}
			}
		}
	}
	JOINT LowerBack
	{
		OFFSET 0.000000 0.000000 0.000000
		CHANNELS 3 Zrotation Yrotation Xrotation
		JOINT Spine
		{
			OFFSET -0.087000 1.940000 -0.288900
			CHANNELS 3 Zrotation Yrotation Xrotation
			JOINT Spine1
			{
				OFFSET 0.000000 1.950000 0.060000
				CHANNELS 3 Zrotation Yrotation Xrotation
				JOINT Neck
				{
					OFFSET 0.000000 0.000000 0.000000
					CHANNELS 3 Zrotation Yrotation Xrotation
					JOINT Neck1
					{
						OFFSET 0.000000 1.600000 0.340000
						CHANNELS 3 Zrotation Yrotation Xrotation
						JOINT Head
						{
							OFFSET 0.000000 1.667000 -0.240000
							CHANNELS 3 Zrotation Yrotation Xrotation
							End Site
							{
								OFFSET 0.000000 0.000000 0.000000
							}
						}
					}
				}
				JOINT LeftShoulder
				{
					OFFSET 0.000000 0.000000 0.000000
					CHANNELS 3 Zrotation Yrotation Xrotation
					JOINT LeftArm
					{
						OFFSET 2.700000 1.550000 -0.730000
						CHANNELS 3 Zrotation Yrotation Xrotation
						JOINT LeftForeArm
						{
							OFFSET 5.450000 0.000000 0.000000
							CHANNELS 3 Zrotation Yrotation Xrotation
							JOINT LeftHand
							{
								OFFSET 3.450000 0.000000 0.000000
								CHANNELS 3 Zrotation Yrotation Xrotation
								JOINT LeftHandIndex1
								{
									OFFSET 0.750000 0.000000 0.000000
									CHANNELS 3 Zrotation Yrotation Xrotation
									End Site
									{
										OFFSET 0.000000 0.000000 0.000000
									}
								}
							}
						}
					}
				}
				JOINT RightShoulder
				{
					OFFSET 0.000000 0.000000 0.000000
					CHANNELS 3 Zrotation Yrotation Xrotation
					JOINT RightArm
					{
						OFFSET -2.700000 1.550000 -0.730000
						CHANNELS 3 Zrotation Yrotation Xrotation
						JOINT RightForeArm
						{
							OFFSET -5.450000 0.000000 0.000000
							CHANNELS 3 Zrotation Yrotation Xrotation
							JOINT RightHand
							{
								OFFSET -3.450000 0.000000 0.000000
								CHANNELS 3 Zrotation Yrotation Xrotation
								JOINT RightHandIndex1
								{
									OFFSET -0.750000 0.000000 0.000000
									CHANNELS 3 Zrotation Yrotation Xrotation
									End Site
									{
										OFFSET 0.000000 0.000000 0.000000
									}
								}
							}
						}
					}
				}
			}
		}
	}
}
MOTION
Frames: 13
Frame Time: 0.016667
-0.560800 16.855420 -2.039790 -2.992815 -2.597334 2.975783 -15.633178 13.180414 3.169190 -4.578914 -3.362832 -4.947539 -15.273304 10.064169 23.677590 0.193979 6.917146 2.568369 0.381690 -0.068660 0.356360 18.148865 -8.825235 3.268792 4.870748 4.040210 -32.084812 22.100391 -12.302430 26.084972 -0.448946 -5.326707 2.753114 0.078830 0.622380 0.353070 -2.775617 -4.815022 -7.209211 6.990971 -9.545368 4.721383 -0.230995 -9.845006 13.102466 0.138653 -2.180983 -6.613015 -6.898473 9.841465 32.101164 -7.301880 12.462000 2.832620 2.975233 11.647782 2.271384 -28.245712 1.665411 -3.271375 -14.623439 -70.296193 7.086255 -3.995482 3.798949 0.215030 0.605270 -0.361900 0.310110 -2.811526 -14.600510 3.677698 42.654593 -21.359164 -14.447267 56.760599 42.776409 15.662504 1.294806 -2.442969 -0.271480 0.132320 -0.082290 -0.248630 
-0.535880 16.863930 -1.952510 -2.320847 -4.957202 2.944334 -15.629799 13.259101 3.233062 -5.160532 -3.020946 -4.099432 -15.043661 10.251492 24.249550 0.310039 6.919846 2.528836 0.412060 -0.042430 0.412850 18.136999 -8.876401 3.257260 5.588651 4.385876 -30.794707 19.666430 -11.379007 26.568351 -0.437250 -5.029113 2.842604 0.025980 0.504880 0.377380 -2.750273 -4.847338 -7.323570 6.902864 -9.033636 6.118810 0.257244 -9.485518 12.315348 0.408544 -2.516939 -6.995343 -7.696450 9.801889 32.802529 -8.352260 13.110170 1.780490 1.475525 10.624742 2.177215 -28.395512 2.515560 -4.274376 -19.244439 -64.006943 8.953959 -3.898161 3.798017 0.251380 0.524400 -0.271660 0.288230 -1.862887 -12.903365 3.990990 43.800159 -19.877249 -14.865619 55.785696 45.064759 16.552548 1.406954 -2.424394 -0.188950 0.055640 -0.120390 -0.251340 
-0.511890 16.872110 -1.878420 -1.779706 -8.112160 3.250361 -15.607490 13.275167 3.280526 -5.450517 -2.937022 -4.308674 -15.063730 10.636727 25.524593 0.389556 7.030054 2.474784 0.424980 -0.029480 0.443340 18.147711 -8.917329 3.299092 6.574340 5.040436 -30.261113 16.609329 -10.443641 28.027028 -0.427216 -4.816458 2.912624 -0.003000 0.441810 0.373010 -2.779361 -4.765731 -7.439417 7.059363 -8.142016 7.602882 0.498272 -8.618068 11.441330 0.637953 -2.847980 -7.275897 -8.263720 9.904464 32.641788 -8.865910 13.525610 0.566340 0.282499 9.968360 1.938098 -28.702496 2.911120 -4.979272 -22.526504 -57.532075 9.517492 -3.824737 3.746151 0.295210 0.464570 -0.211800 0.283190 -1.161871 -11.560631 4.302478 45.587000 -19.163110 -15.711649 55.356073 47.199171 17.364276 1.487770 -2.384910 -0.161770 0.040430 -0.145620 -0.253700 
-0.493200 16.881540 -1.801980 -1.481012 -10.983167 3.240974 -15.567142 13.355299 3.338323 -4.599031 -3.128953 -4.806768 -15.469273 11.454275 27.729347 0.519590 7.366080 2.346453 0.399250 -0.088730 0.446230 18.153117 -8.954143 3.378444 7.514136 5.693220 -29.760891 13.208323 -9.472097 29.832250 -0.406981 -4.652275 2.970378 -0.075260 0.376280 0.363420 -2.813454 -4.787744 -7.663654 7.684472 -7.532945 10.284077 0.443840 -7.802893 9.327162 1.162839 -3.570794 -7.795444 -9.665429 9.764348 32.502830 -9.488520 13.656580 0.812170 -1.244859 9.468059 1.676428 -29.559427 3.489902 -5.660480 -23.796455 -51.052194 8.783530 -3.745871 3.680557 0.350290 0.394910 -0.174280 0.268810 -0.657476 -10.085806 4.870973 47.794152 -18.593594 -16.615901 55.271861 49.607202 18.523158 1.581864 -2.357257 -0.146460 -0.005110 -0.154340 -0.263280 
-0.459370 16.897930 -1.719450 -1.494857 -13.363546 3.048614 -15.497580 13.441122 3.366750 -3.034021 -3.534871 -5.925381 -15.262141 12.507563 31.470375 0.623622 7.908960 2.129017 0.361300 -0.157400 0.449350 18.181135 -8.994969 3.478885 8.262288 6.388558 -29.528215 9.497442 -8.483281 32.137031 -0.401250 -4.572334 2.983451 -0.136250 0.311000 0.340230 -2.919325 -4.791893 -7.874262 9.156871 -7.291999 13.659444 0.043319 -7.057864 6.819899 1.693307 -4.674909 -8.234520 -11.618769 9.904651 31.702939 -10.462330 13.808110 -0.253600 -2.987068 9.462097 1.378642 -30.410240 5.147760 -6.403100 -26.098481 -46.934711 8.699055 -3.695982 3.603641 0.422450 0.321920 -0.145930 0.223930 0.063051 -8.825880 5.249336 49.442751 -17.806681 -17.182416 56.005797 52.022740 20.111335 1.665647 -2.298304 -0.154270 -0.023990 -0.127510 -0.291840 
-0.425520 16.891480 -1.633750 -1.203870 -15.004384 3.309803 -15.471990 13.435901 3.401523 -1.300391 -4.287196 -8.123261 -14.673492 13.896930 36.889217 0.812956 8.730971 1.845261 0.339380 -0.191720 0.456640 18.186594 -9.001802 3.555108 8.663844 7.052785 -30.003701 5.626700 -7.362542 34.557762 -0.407093 -4.583923 2.976122 -0.176010 0.284350 0.341080 -2.939601 -4.714952 -8.011660 9.636476 -6.864090 15.736906 0.277245 -6.287778 5.233050 2.144899 -4.792702 -8.445875 -11.443430 9.722862 30.922107 -11.539870 14.467950 -0.667420 -4.904145 8.993321 1.233276 -31.108655 6.821209 -7.153382 -28.531688 -43.464594 8.629368 -3.682633 3.554233 0.442280 0.298290 -0.124750 0.214510 1.159321 -7.795696 5.441455 50.977905 -16.904174 -17.564425 56.975224 54.769168 21.871228 1.745123 -2.280306 -0.148460 -0.044220 -0.132590 -0.296760 
-0.389980 16.847110 -1.540870 -0.924106 -15.279320 4.057723 -15.431307 13.350651 3.442711 0.285374 -5.335552 -11.419429 -12.263957 14.845313 44.097033 1.030414 9.695168 1.531317 0.298950 -0.234720 0.420670 18.222915 -9.024371 3.608605 9.002507 7.506415 -31.112438 1.331851 -5.958338 36.474273 -0.381761 -4.588852 2.981643 -0.211760 0.307630 0.344260 -3.047150 -4.505200 -8.081143 10.567409 -6.845527 16.919620 -0.015946 -5.864382 3.633915 2.442665 -4.629477 -8.643654 -10.433822 9.541247 29.168883 -11.297720 14.796310 0.191900 -5.641079 8.772934 1.323463 -32.367775 8.053542 -7.669748 -30.803880 -40.309455 8.477928 -3.697397 3.549475 0.416040 0.312570 -0.144690 0.218340 1.357386 -7.434011 5.511409 53.167745 -15.843437 -17.615190 58.050922 56.735506 23.436467 1.805194 -2.291449 -0.145150 -0.066120 -0.127090 -0.280460 
-0.357640 16.786860 -1.455270 -0.721501 -15.614208 4.798832 -15.417999 13.257386 3.492173 2.260721 -6.095953 -14.709467 -9.963408 15.534447 50.194912 1.181169 10.599410 1.243923 0.253130 -0.301290 0.394940 18.246357 -8.972627 3.678750 9.209753 8.065111 -32.332788 -2.481187 -4.708862 38.631410 -0.397292 -4.744824 2.935079 -0.245560 0.340840 0.342530 -3.105316 -4.397214 -8.169662 11.281299 -7.041108 18.275428 0.046210 -5.596375 2.136083 2.631471 -4.701225 -8.822790 -10.007297 9.771002 27.573721 -11.293410 15.167050 0.178470 -6.849937 8.472191 1.471644 -33.841354 10.007110 -8.456183 -32.510380 -37.443903 7.947824 -3.730700 3.494182 0.425900 0.325420 -0.167840 0.210140 2.260207 -6.787523 5.500614 54.294592 -14.601697 -17.262962 60.563530 59.789899 26.368670 1.859155 -2.265291 -0.172080 -0.054770 -0.097160 -0.286440 
-0.340460 16.724160 -1.375560 -0.004473 -16.186958 4.675437 -15.465729 13.383708 3.541813 3.908367 -6.439817 -16.967920 -6.744562 15.388375 55.493611 1.267282 11.231410 1.038409 0.236600 -0.340210 0.399690 18.183709 -8.934965 3.674853 8.613562 8.191572 -32.673284 -5.297518 -3.754244 40.342956 -0.449347 -4.900607 2.884265 -0.271820 0.326870 0.317040 -2.919011 -4.658400 -8.292511 10.054957 -6.947201 20.794141 1.365124 -5.120482 0.258560 2.801077 -5.019766 -9.167305 -10.472437 9.959841 27.268139 -11.308190 15.040810 -1.282330 -8.261887 8.134873 1.623709 -36.001306 11.878568 -9.427646 -32.992895 -34.188754 6.812260 -3.703437 3.381490 0.496530 0.279610 -0.148230 0.201860 3.557958 -5.612028 5.725505 54.282745 -13.886588 -16.755004 65.875172 63.338852 31.170513 1.963595 -2.168676 -0.204770 -0.021360 -0.085270 -0.303450 
-0.321070 16.665420 -1.303090 0.473649 -16.996763 4.432720 -15.496988 13.576807 3.527163 4.956637 -6.548740 -19.194018 -1.952509 13.745629 60.216534 1.333330 11.471457 0.949791 0.241600 -0.335220 0.408440 18.129575 -8.936002 3.678473 7.841478 8.296212 -32.587509 -6.218516 -3.499090 41.635744 -0.510254 -5.070113 2.821584 -0.296450 0.284500 0.315890 -2.764318 -4.918722 -8.372728 9.297832 -6.918682 23.651030 2.406108 -4.538006 -1.944142 3.070509 -5.420752 -9.420804 -11.140798 10.136819 27.262345 -12.093660 15.362330 -2.264750 -10.852692 7.595591 1.619043 -36.577354 14.204001 -10.147508 -33.762435 -31.059171 5.849278 -3.667371 3.335721 0.523480 0.232720 -0.107320 0.205650 5.796378 -4.204140 6.015926 53.539933 -13.628027 -15.914390 75.264183 68.229859 39.433472 2.230093 -1.959764 -0.182990 -0.037350 -0.104200 -0.295790 
-0.309450 16.578820 -1.228190 0.880988 -18.478417 4.793954 -15.522020 13.660684 3.501246 5.795377 -6.484592 -22.290807 3.356569 11.338367 64.274112 1.350823 11.621055 0.903195 0.223110 -0.362410 0.405510 18.107026 -8.909254 3.726416 7.446012 8.695565 -32.642352 -6.611864 -3.340934 42.681658 -0.538578 -5.234539 2.774651 -0.316560 0.293900 0.311940 -2.681715 -4.994179 -8.420190 8.702426 -6.621232 25.367276 3.103277 -3.762987 -3.840599 3.227270 -5.617778 -9.426134 -11.216687 10.729838 26.599939 -12.747740 16.212810 -2.321710 -13.118640 7.388738 1.657604 -36.962125 16.759918 -10.717908 -34.402117 -28.127779 4.886099 -3.680718 3.288896 0.528700 0.233670 -0.110430 0.206880 7.862140 -3.327848 5.918847 52.612920 -12.778751 -15.099502 88.982454 71.156373 50.588609 2.667351 -1.377761 -0.193150 -0.034750 -0.103400 -0.295870 
-0.309460 16.491140 -1.152200 1.457042 -19.458911 5.178634 -15.568494 13.716657 3.487814 6.046205 -6.425498 -25.348542 9.155806 7.929799 67.045586 1.347228 11.587220 0.904836 0.249070 -0.328450 0.430360 18.076779 -8.852045 3.777388 7.036760 9.119986 -32.991103 -7.012846 -3.155062 44.033440 -0.595468 -5.456716 2.685284 -0.301080 0.277890 0.328800 -2.565297 -5.080546 -8.464402 7.519571 -6.148646 26.600332 4.407988 -3.026190 -5.493277 3.067515 -5.566623 -8.973242 -10.880196 11.106861 26.108204 -13.676810 16.906320 -3.039550 -15.678527 7.257584 1.596433 -36.544683 18.758756 -10.787672 -35.227180 -24.137807 3.634811 -3.687852 3.284493 0.521380 0.232390 -0.090470 0.216980 10.852458 -2.729985 5.197829 50.312153 -11.821493 -16.263986 104.787757 70.854722 65.315119 2.856801 -0.738545 -0.177110 -0.051650 -0.128940 -0.291220 
-0.298740 16.424810 -1.072080 1.412446 -20.962353 5.409842 -15.597518 13.861205 3.377493 6.206236 -5.784071 -27.413289 15.506118 3.620004 66.817063 1.289348 11.263107 0.982805 0.242680 -0.322400 0.411730 18.054216 -8.768124 3.910453 7.162684 9.874538 -33.016263 -7.320537 -2.905356 45.378797 -0.648744 -5.658592 2.618773 -0.306390 0.266000 0.326870 -2.473228 -5.243982 -8.506294 7.135616 -5.804848 28.292882 5.533779 -2.055389 -7.572128 2.991937 -6.015624 -8.710662 -11.606599 12.056138 26.454429 -14.304750 17.521470 -3.604480 -18.362833 7.088682 1.676298 -37.150527 21.051142 -11.191272 -34.130435 -20.445858 2.103357 -3.689029 3.240109 0.526740 0.217630 -0.078030 0.214250 13.792644 -1.571819 4.627498 47.790448 -10.607062 -17.610137 119.894510 69.338922 83.518556 2.467725 -0.782679 -0.167430 -0.052990 -0.118930 -0.283230 
